<svg width="19" height="21" viewBox="0 0 19 21" fill="none" xmlns="http://www.w3.org/2000/svg">
<path d="M15.8333 21C14.9537 21 14.206 20.6937 13.5903 20.0812C12.9745 19.4687 12.6667 18.725 12.6667 17.85C12.6667 17.745 12.6931 17.5 12.7458 17.115L5.33056 12.81C5.04907 13.0725 4.72361 13.2781 4.35417 13.4269C3.98472 13.5756 3.58889 13.65 3.16667 13.65C2.28704 13.65 1.53935 13.3437 0.923611 12.7312C0.30787 12.1187 0 11.375 0 10.5C0 9.625 0.30787 8.88125 0.923611 8.26875C1.53935 7.65625 2.28704 7.35 3.16667 7.35C3.58889 7.35 3.98472 7.42437 4.35417 7.57312C4.72361 7.72187 5.04907 7.9275 5.33056 8.19L12.7458 3.885C12.7106 3.7625 12.6887 3.64437 12.6799 3.53062C12.6711 3.41687 12.6667 3.29 12.6667 3.15C12.6667 2.275 12.9745 1.53125 13.5903 0.91875C14.206 0.30625 14.9537 0 15.8333 0C16.713 0 17.4606 0.30625 18.0764 0.91875C18.6921 1.53125 19 2.275 19 3.15C19 4.025 18.6921 4.76875 18.0764 5.38125C17.4606 5.99375 16.713 6.3 15.8333 6.3C15.4111 6.3 15.0153 6.22562 14.6458 6.07687C14.2764 5.92812 13.9509 5.7225 13.6694 5.46L6.25417 9.765C6.28935 9.8875 6.31134 10.0056 6.32014 10.1194C6.32894 10.2331 6.33333 10.36 6.33333 10.5C6.33333 10.64 6.32894 10.7669 6.32014 10.8806C6.31134 10.9944 6.28935 11.1125 6.25417 11.235L13.6694 15.54C13.9509 15.2775 14.2764 15.0719 14.6458 14.9231C15.0153 14.7744 15.4111 14.7 15.8333 14.7C16.713 14.7 17.4606 15.0062 18.0764 15.6187C18.6921 16.2312 19 16.975 19 17.85C19 18.725 18.6921 19.4687 18.0764 20.0812C17.4606 20.6937 16.713 21 15.8333 21ZM15.8333 18.9C16.1324 18.9 16.3831 18.7994 16.5854 18.5981C16.7877 18.3969 16.8889 18.1475 16.8889 17.85C16.8889 17.5525 16.7877 17.3031 16.5854 17.1019C16.3831 16.9006 16.1324 16.8 15.8333 16.8C15.5343 16.8 15.2836 16.9006 15.0813 17.1019C14.8789 17.3031 14.7778 17.5525 14.7778 17.85C14.7778 18.1475 14.8789 18.3969 15.0813 18.5981C15.2836 18.7994 15.5343 18.9 15.8333 18.9ZM3.16667 11.55C3.46574 11.55 3.71644 11.4494 3.91875 11.2481C4.12107 11.0469 4.22222 10.7975 4.22222 10.5C4.22222 10.2025 4.12107 9.95312 3.91875 9.75187C3.71644 9.55062 3.46574 9.45 3.16667 9.45C2.86759 9.45 2.6169 9.55062 2.41458 9.75187C2.21227 9.95312 2.11111 10.2025 2.11111 10.5C2.11111 10.7975 2.21227 11.0469 2.41458 11.2481C2.6169 11.4494 2.86759 11.55 3.16667 11.55ZM15.8333 4.2C16.1324 4.2 16.3831 4.09937 16.5854 3.89812C16.7877 3.69687 16.8889 3.4475 16.8889 3.15C16.8889 2.8525 16.7877 2.60313 16.5854 2.40188C16.3831 2.20063 16.1324 2.1 15.8333 2.1C15.5343 2.1 15.2836 2.20063 15.0813 2.40188C14.8789 2.60313 14.7778 2.8525 14.7778 3.15C14.7778 3.4475 14.8789 3.69687 15.0813 3.89812C15.2836 4.09937 15.5343 4.2 15.8333 4.2Z" fill="white"/>
</svg>
